<svg width="20" height="13" viewBox="0 0 20 13" fill="none" xmlns="http://www.w3.org/2000/svg">
<path d="M6.83923 6.931C7.4739 7.04433 8.01223 7.37867 8.45424 7.934C8.89624 8.48933 9.11723 9.11833 9.11723 9.821C9.11723 10.4217 8.95857 10.9657 8.64123 11.453C8.33523 11.929 7.88757 12.3087 7.29823 12.592C6.7089 12.864 6.02323 13 5.24123 13H0.515234V1.185H5.02023C5.8249 1.185 6.51623 1.321 7.09423 1.593C7.67223 1.865 8.10857 2.23333 8.40323 2.698C8.6979 3.15133 8.84523 3.66133 8.84523 4.228C8.84523 4.908 8.6639 5.47467 8.30124 5.928C7.93857 6.38133 7.45124 6.71567 6.83923 6.931ZM2.45323 6.149H4.85023C5.4849 6.149 5.9779 6.00733 6.32923 5.724C6.6919 5.42933 6.87323 5.01 6.87323 4.466C6.87323 3.93333 6.6919 3.51967 6.32923 3.225C5.9779 2.919 5.4849 2.766 4.85023 2.766H2.45323V6.149ZM5.07123 11.419C5.72857 11.419 6.24423 11.2603 6.61823 10.943C6.99223 10.6257 7.17923 10.1837 7.17923 9.617C7.17923 9.039 6.9809 8.58 6.58423 8.24C6.18757 7.9 5.66057 7.73 5.00323 7.73H2.45323V11.419H5.07123ZM12.0392 10.365C13.1272 9.42433 13.9829 8.65367 14.6062 8.053C15.2409 7.441 15.7679 6.80633 16.1872 6.149C16.6066 5.49167 16.8162 4.83433 16.8162 4.177C16.8162 3.497 16.6519 2.96433 16.3232 2.579C16.0059 2.19367 15.5016 2.001 14.8102 2.001C14.1416 2.001 13.6202 2.21633 13.2462 2.647C12.8836 3.06633 12.6909 3.633 12.6682 4.347H10.7982C10.8322 3.055 11.2176 2.069 11.9542 1.389C12.7022 0.697666 13.6486 0.352 14.7932 0.352C16.0286 0.352 16.9919 0.692 17.6832 1.372C18.3859 2.052 18.7372 2.95867 18.7372 4.092C18.7372 4.908 18.5276 5.69567 18.1082 6.455C17.7002 7.203 17.2072 7.87733 16.6292 8.478C16.0626 9.06733 15.3372 9.753 14.4532 10.535L13.6882 11.215H19.0772V12.83H10.8152V11.419L12.0392 10.365Z" fill="#FEFEFE"/>
</svg>
